HIERARCHY
ROOT Hips
{
    OFFSET 0.000000 0.000000 0.000000
    CHANNELS 6 Xposition Yposition Zposition Zrotation Xrotation Yrotation
    JOINT Spine
    {
        OFFSET -0.000000 7.858286 0.000000
        CHANNELS 3 Zrotation Xrotation Yrotation
        JOINT Spine1
        {
            OFFSET -0.000000 25.138355 0.000000
            CHANNELS 3 Zrotation Xrotation Yrotation
            JOINT Neck
            {
                OFFSET -0.000000 25.035116 2.275919
                CHANNELS 3 Zrotation Xrotation Yrotation
                JOINT Head
                {
                    OFFSET -0.000000 13.416585 -1.916655
                    CHANNELS 3 Zrotation Xrotation Yrotation
                    End Site
                    {
                        OFFSET -0.000000 23.958189 0.000000
                    }
                }
            }
            JOINT LeftShoulder
            {
                OFFSET 3.815342 24.034578 -0.234509
                CHANNELS 3 Zrotation Xrotation Yrotation
                JOINT LeftArm
                {
                    OFFSET 8.622727 0.000000 0.000000
                    CHANNELS 3 Zrotation Xrotation Yrotation
                    JOINT LeftForeArm
                    {
                        OFFSET 31.706440 0.000000 0.000000
                        CHANNELS 3 Zrotation Xrotation Yrotation
                        JOINT LeftHand
                        {
                            OFFSET 23.773136 0.000000 0.000000
                            CHANNELS 3 Zrotation Xrotation Yrotation
                            End Site
                            {
                                OFFSET 14.374913 0.000000 0.000000
                            }
                        }
                    }
                }
            }
            JOINT RightShoulder
            {
                OFFSET -3.836082 24.034578 -0.234509
                CHANNELS 3 Zrotation Xrotation Yrotation
                JOINT RightArm
                {
                    OFFSET -8.622727 0.000000 0.000000
                    CHANNELS 3 Zrotation Xrotation Yrotation
                    JOINT RightForeArm
                    {
                        OFFSET -31.706440 0.000000 0.000000
                        CHANNELS 3 Zrotation Xrotation Yrotation
                        JOINT RightHand
                        {
                            OFFSET -23.773136 0.000000 0.000000
                            CHANNELS 3 Zrotation Xrotation Yrotation
                            End Site
                            {
                                OFFSET -14.374913 0.000000 0.000000
                            }
                        }
                    }
                }
            }
        }
    }
    JOINT LeftUpLeg
    {
        OFFSET 9.583276 0.000000 0.000000
        CHANNELS 3 Zrotation Xrotation Yrotation
        JOINT LeftLeg
        {
            OFFSET -0.000000 -36.453522 0.000000
            CHANNELS 3 Zrotation Xrotation Yrotation
            JOINT LeftFoot
            {
                OFFSET -0.000000 -41.465855 0.000000
                CHANNELS 3 Zrotation Xrotation Yrotation
                JOINT LeftToeBase
                {
                    OFFSET -0.000000 -6.229129 14.374913
                    CHANNELS 3 Zrotation Xrotation Yrotation
                    End Site
                    {
                        OFFSET -0.000000 0.000000 3.833310
                    }
                }
            }
        }
    }
    JOINT RightUpLeg
    {
        OFFSET -9.583276 0.000000 0.000000
        CHANNELS 3 Zrotation Xrotation Yrotation
        JOINT RightLeg
        {
            OFFSET -0.000000 -36.453522 0.000000
            CHANNELS 3 Zrotation Xrotation Yrotation
            JOINT RightFoot
            {
                OFFSET -0.000000 -41.465855 0.000000
                CHANNELS 3 Zrotation Xrotation Yrotation
                JOINT RightToeBase
                {
                    OFFSET -0.000000 -6.229129 14.374913
                    CHANNELS 3 Zrotation Xrotation Yrotation
                    End Site
                    {
                        OFFSET -0.000000 0.000000 3.833310
                    }
                }
            }
        }
    }
}
MOTION
Frames:    4
Frame Time:    0.004000
0.023606    79.198959    -204.761124    0.634017    1.172960    -0.826118    -0.258887    -11.494818    -0.312048    0.967066    0.046956    -0.286457    -0.711187    31.290375    -0.985960    4.510819    -8.793866    -0.150703    8.984758    3.064678    4.108729    -10.827540    8.828033    -4.255941    2.744594    -7.619619    1.445135    4.123778    -7.666585    -0.354420    -8.257157    3.286347    7.195691    5.348462    0.000190    1.783684    -2.166606    -5.861415    1.665707    -5.531237    -5.962549    2.756372    2.422601    5.856424    0.718902    -8.055014    -2.712778    0.226764    5.723714    -4.582359    9.258992    0.000000    0.000000    0.000000    0.054772    1.793234    0.423534    3.687319    4.917272    -0.110599    -7.442529    -8.675335    -10.875937    0.000000    0.000000    0.000000    
0.023496    79.197739    -204.766815    0.636750    1.198596    -0.812290    -0.274301    -11.517293    -0.306903    0.988302    0.035087    -0.279514    -0.730362    31.289280    -0.986955    4.517806    -8.779035    -0.153563    8.966260    3.050979    4.112812    -10.805086    8.768543    -4.211788    2.654349    -7.621706    1.346441    4.235525    -7.663191    -0.288217    -8.275579    3.289940    7.198509    5.352779    -0.023108    1.780966    -2.155603    -5.853815    1.673240    -5.568800    -5.955280    2.744342    2.423763    5.834259    0.697047    -8.060069    -2.739742    0.224707    5.698508    -4.559581    9.268192    0.000000    0.000000    0.000000    0.045264    1.758601    0.443803    3.702890    4.927634    -0.135650    -7.496702    -8.676172    -10.866660    0.000000    0.000000    0.000000    
0.023955    79.195854    -204.767487    0.632845    1.198212    -0.797572    -0.268088    -11.517725    -0.308024    0.977013    0.034964    -0.281299    -0.729553    31.285769    -0.982559    4.526379    -8.771315    -0.147305    8.968835    3.059334    4.115784    -10.806555    8.744602    -4.204412    2.704743    -7.520752    1.390043    4.011557    -7.565344    -0.347083    -8.264371    3.282952    7.190596    5.346066    -0.002466    1.791185    -2.134862    -5.858874    1.678359    -5.686245    -5.962050    2.717798    2.425623    5.833823    0.691307    -8.054098    -2.738218    0.203150    5.697055    -4.575763    9.284729    0.000000    0.000000    0.000000    0.048600    1.750764    0.411131    3.704159    4.947931    -0.149947    -7.530057    -8.689566    -10.839814    0.000000    0.000000    0.000000    
0.023047    79.195854    -204.765793    0.627176    1.204089    -0.780813    -0.268403    -11.529778    -0.310683    0.983985    0.036960    -0.283911    -0.754021    31.283264    -0.979800    4.548229    -8.762881    -0.143636    8.964360    3.067997    4.120432    -10.816095    8.752164    -4.204558    2.706664    -7.546634    1.386659    4.042912    -7.590250    -0.318609    -8.276472    3.289879    7.199986    5.359706    0.013786    1.779723    -2.158838    -5.865577    1.687435    -5.628881    -5.967115    2.722865    2.429583    5.845616    0.688640    -8.083368    -2.797752    0.361889    5.792741    -4.542939    9.184137    0.000000    0.000000    0.000000    0.049202    1.751173    0.441029    3.723495    4.941112    -0.148629    -7.483503    -8.687977    -10.902647    0.000000    0.000000    0.000000    
